<?xml version="1.0" encoding="UTF-8" standalone="no"?>
<svg
   id="Warstwa_1"
   data-name="Warstwa 1"
   viewBox="0 0 100 100"
   version="1.1"
   sodipodi:docname="icona-gwiazda-half.svg"
   inkscape:version="1.2.1 (9c6d41e4, 2022-07-14)"
   xmlns:inkscape="http://www.inkscape.org/namespaces/inkscape"
   xmlns:sodipodi="http://sodipodi.sourceforge.net/DTD/sodipodi-0.dtd"
   xmlns="http://www.w3.org/2000/svg"
   xmlns:svg="http://www.w3.org/2000/svg">
  <sodipodi:namedview
     id="namedview349"
     pagecolor="#ffffff"
     bordercolor="#000000"
     borderopacity="0.25"
     inkscape:showpageshadow="2"
     inkscape:pageopacity="0.0"
     inkscape:pagecheckerboard="0"
     inkscape:deskcolor="#d1d1d1"
     showgrid="false"
     showguides="true"
     inkscape:zoom="13.420887"
     inkscape:cx="43.62603"
     inkscape:cy="31.33176"
     inkscape:window-width="1424"
     inkscape:window-height="1099"
     inkscape:window-x="76"
     inkscape:window-y="25"
     inkscape:window-maximized="0"
     inkscape:current-layer="Warstwa_1">
    <sodipodi:guide
       position="49.947313,51.001054"
       orientation="1,0"
       id="guide413"
       inkscape:locked="false" />
  </sodipodi:namedview>
  <defs
     id="defs342">
    <style
       id="style340">.cls-1{fill:#ffb80d;}</style>
  </defs>
  <title
     id="title344">icona-gwiazda</title>
  <path
     class="cls-1"
     d="M50.06,15.54a2.42,2.42,0,0,1,2.26,1.52c2.91,5.94,5.85,11.86,8.76,17.8a1.26,1.26,0,0,0,1.1.8c6.43.91,12.85,1.86,19.28,2.8l.81.13a2.38,2.38,0,0,1,1.32,4c-.61.67-1.28,1.28-1.93,1.91L69,56.82a1.09,1.09,0,0,0-.39,1.1c1.16,6.64,2.28,13.29,3.42,19.93a2.33,2.33,0,0,1-.94,2.45,2.36,2.36,0,0,1-2.69.12L50.63,71.07a1.14,1.14,0,0,0-1.24,0L31.83,80.31a2.57,2.57,0,0,1-2.77.09A2.28,2.28,0,0,1,28,78q1.34-7.86,2.68-15.71c.25-1.43.46-2.87.75-4.3A1.06,1.06,0,0,0,31,56.83c-4.65-4.5-9.28-9-13.91-13.54L16.85,43a2.49,2.49,0,0,1-.94-2.87,2.67,2.67,0,0,1,2.52-1.69c6.48-.92,13-1.88,19.43-2.79a1.22,1.22,0,0,0,1-.79C41.81,29,44.76,23,47.67,17.08A2.45,2.45,0,0,1,50.06,15.54Z"
     id="path346" />
  <path
     id="path351"
     style="display:none;fill:#cccccc"
     d="m 49.921875,15.560547 a 2.45,2.45 0 0 0 -2.251953,1.519531 c -2.909997,5.919994 -5.86055,11.919303 -8.810547,17.779297 a 1.22,1.22 0 0 1 -1,0.791016 C 31.429381,36.56039 24.909681,37.519454 18.429688,38.439453 A 2.67,2.67 0 0 0 15.910156,40.130859 2.49,2.49 0 0 0 16.849609,43 l 0.240235,0.289062 C 21.719839,47.829058 26.350005,52.330083 31,56.830078 a 1.06,1.06 0 0 1 0.429688,1.160156 c -0.29,1.429999 -0.500001,2.86883 -0.75,4.298828 C 29.786355,67.522391 28.893332,72.760005 28,78 a 2.28,2.28 0 0 0 1.060547,2.400391 2.57,2.57 0 0 0 2.769531,-0.08984 l 17.560547,-9.240235 a 1.14,1.14 0 0 1 0.53125,-0.158203 z" />
  <path
     id="path2905"
     style="display:inline;fill:#cccccc"
     d="m 49.921875,15.560547 v 55.351562 a 1.14,1.14 0 0 1 0.708984,0.158203 l 17.769532,9.34961 a 2.36,2.36 0 0 0 2.689453,-0.119141 2.33,2.33 0 0 0 0.939453,-2.451172 C 70.889298,71.209616 69.769374,64.559915 68.609375,57.919922 A 1.09,1.09 0 0 1 69,56.820312 L 81.660156,44.5 c 0.65,-0.629999 1.319688,-1.240157 1.929688,-1.910156 a 2.38,2.38 0 0 0 -1.320313,-4 l -0.808593,-0.128906 c -6.429994,-0.94 -12.851257,-1.890783 -19.28125,-2.800782 a 1.26,1.26 0 0 1 -1.09961,-0.800781 C 58.170081,28.919381 55.23031,23.000541 52.320312,17.060547 a 2.42,2.42 0 0 0 -2.259765,-1.521485 2.45,2.45 0 0 0 -0.138672,0.02149 z" />
</svg>
