<svg id="Warstwa_1" data-name="Warstwa 1" xmlns="http://www.w3.org/2000/svg" viewBox="0 0 100 100"><defs><style>.cls-1{fill:#090;}.cls-2{fill:#fff;}</style></defs><title>do-domu</title><circle class="cls-1" cx="49.75" cy="49.42" r="47.57"/><path class="cls-2" d="M43.86,74.4H35l-.31-.11a5.24,5.24,0,0,1-4.13-5.06c0-4.85,0-9.7,0-14.55V54c-.35,0-.63,0-.91,0a4.1,4.1,0,0,1-3.43-1.92,13,13,0,0,1-.85-2V48.66a7.56,7.56,0,0,1,2.38-3.59q9.23-9.48,18.44-19a8.57,8.57,0,0,1,.69-.66,4.37,4.37,0,0,1,6,.56L72.3,46c.13.14.27.28.39.43a4.52,4.52,0,0,1,.69,4.83A4.23,4.23,0,0,1,69.48,54c-.3,0-.59,0-.91,0v.67c0,4.84,0,9.69,0,14.53a5.3,5.3,0,0,1-3.69,5l-.75.23h-8.9a1.93,1.93,0,0,1-1-2c0-3.67,0-7.34,0-11a2.42,2.42,0,0,0-2.54-2.67c-1.41,0-2.81,0-4.22,0a2.41,2.41,0,0,0-2.54,2.66c0,3.68,0,7.35,0,11A2,2,0,0,1,43.86,74.4Z"/></svg>