<svg id="Warstwa_1" data-name="Warstwa 1" xmlns="http://www.w3.org/2000/svg" viewBox="0 0 100 100"><defs><style>.cls-1{fill:#28adee;}.cls-2{fill:#fff;}</style></defs><title>icona-alergicy</title><circle class="cls-1" cx="49.75" cy="49.42" r="47.57"/><path class="cls-2" d="M21,38.87a4,4,0,0,1,1.5-2.27,3.48,3.48,0,0,1,3.88-.21c.89.5,1.76,1,2.61,1.62a1.16,1.16,0,0,0,1.07.15,80.76,80.76,0,0,0,15.22-6.42,12.41,12.41,0,0,1,4.14-1.59,9.56,9.56,0,0,1,5.53.78c2.64,1.22,5.25,2.52,7.92,3.68,2.89,1.25,5.82,2.38,8.74,3.54a.83.83,0,0,0,.67-.08c.84-.48,1.65-1,2.47-1.52a3.64,3.64,0,0,1,5.67,3.16c0,3.66,0,7.31,0,11A3.64,3.64,0,0,1,78.61,54c-1.72,1.08-3.43,2.16-5.16,3.22A.78.78,0,0,0,73,58a4.54,4.54,0,0,1-1.67,3.72,32.36,32.36,0,0,1-16.56,8,26.55,26.55,0,0,1-12-1.19,36.48,36.48,0,0,1-12.46-6.71,4.57,4.57,0,0,1-1.85-3.93,1.11,1.11,0,0,0-.66-1.17c-1.43-.85-2.81-1.79-4.24-2.62A4.86,4.86,0,0,1,21,51.17ZM73,55.29c1.7-1.07,3.3-2.06,4.89-3.09a1.67,1.67,0,0,0,.68-1.51c0-3.68,0-7.35,0-11a1.76,1.76,0,0,0-2.8-1.54c-.78.47-1.54,1-2.32,1.44a.8.8,0,0,0-.46.82c0,2.12,0,4.25,0,6.37Zm-44.63-.42a.67.67,0,0,0,.06-.16q0-7.29,0-14.56a.72.72,0,0,0-.31-.48c-.82-.54-1.65-1.07-2.5-1.57a1.75,1.75,0,0,0-2.75,1.52c0,3.6,0,7.19,0,10.79a1.71,1.71,0,0,0,.8,1.52C25.23,52.91,26.79,53.87,28.39,54.87ZM66.2,45a45.43,45.43,0,0,1-30.92,0c-.19.52-.37,1-.54,1.46a1.58,1.58,0,0,0,0,.28,47.2,47.2,0,0,0,32.12,0ZM34.65,55.07a47.31,47.31,0,0,0,32.18,0l-.63-1.72a45.49,45.49,0,0,1-30.92,0Z"/></svg>