<svg id="Warstwa_1" data-name="Warstwa 1" xmlns="http://www.w3.org/2000/svg" viewBox="0 0 100 100"><defs><style>.cls-1{fill:#ffb80d;}</style></defs><title>icona-gwiazda</title><path class="cls-1" d="M50.06,15.54a2.42,2.42,0,0,1,2.26,1.52c2.91,5.94,5.85,11.86,8.76,17.8a1.26,1.26,0,0,0,1.1.8c6.43.91,12.85,1.86,19.28,2.8l.81.13a2.38,2.38,0,0,1,1.32,4c-.61.67-1.28,1.28-1.93,1.91L69,56.82a1.09,1.09,0,0,0-.39,1.1c1.16,6.64,2.28,13.29,3.42,19.93a2.33,2.33,0,0,1-.94,2.45,2.36,2.36,0,0,1-2.69.12L50.63,71.07a1.14,1.14,0,0,0-1.24,0L31.83,80.31a2.57,2.57,0,0,1-2.77.09A2.28,2.28,0,0,1,28,78q1.34-7.86,2.68-15.71c.25-1.43.46-2.87.75-4.3A1.06,1.06,0,0,0,31,56.83c-4.65-4.5-9.28-9-13.91-13.54L16.85,43a2.49,2.49,0,0,1-.94-2.87,2.67,2.67,0,0,1,2.52-1.69c6.48-.92,13-1.88,19.43-2.79a1.22,1.22,0,0,0,1-.79C41.81,29,44.76,23,47.67,17.08A2.45,2.45,0,0,1,50.06,15.54Z"/></svg>