<svg id="Warstwa_1" data-name="Warstwa 1" xmlns="http://www.w3.org/2000/svg" viewBox="0 0 100 100"><defs><style>.cls-1{fill:#090;}.cls-2{fill:#fff;}</style></defs><title>icona-do-pracy</title><circle class="cls-1" cx="49.75" cy="49.42" r="47.57"/><path class="cls-2" d="M75.57,75.81H23.92V70.66h7.75V24.19H67.85V70.66h7.72Zm-20.7-5.2V60.36H44.62V70.61Zm-18-36.18h5.08V29.35H36.86Zm25.77,0V29.35H57.54v5.09ZM36.86,44.78H42V39.7h-5.1Zm20.67,0h5.11V39.7H57.53ZM42,50h-5.1V55.1H42ZM57.52,55.1h5.11V50H57.52ZM52.28,29.35H47.22v5.08h5.06Zm0,10.37H47.22v5.06h5.07Zm0,15.39V50H47.22v5.1Z"/></svg>