<svg id="Warstwa_1" data-name="Warstwa 1" xmlns="http://www.w3.org/2000/svg" viewBox="0 0 100 100"><defs><style>.cls-1{fill:#fff;}</style></defs><title>icona-filtr</title><path class="cls-1" d="M49.46,96.47a19.42,19.42,0,0,1-1.89-1.33Q34.3,83.23,21,71.3a3.58,3.58,0,0,1-1.28-2.83c0-5.24,0-10.49,0-15.74,0-2.26,1.88-3.69,3.8-2.89a5.05,5.05,0,0,1,1.31.91L48.34,71.86l1.77,1.59,5-4.51q10.2-9.16,20.4-18.34c1.48-1.34,3.26-1.32,4.28.11a3.66,3.66,0,0,1,.62,1.94c0,5.36,0,10.71,0,16.06a3.19,3.19,0,0,1-1.16,2.47l-17.82,16c-2.94,2.65-5.87,5.3-8.83,7.93a19.94,19.94,0,0,1-1.89,1.33Z"/><path class="cls-1" d="M50.11,37.62l4.72-4.23,20.7-18.63c1.47-1.33,3.25-1.31,4.28.14a3.68,3.68,0,0,1,.61,1.94c0,5.35,0,10.71,0,16.06a3.26,3.26,0,0,1-1.22,2.52l-18,16.2-8.95,8c-1.5,1.35-2.84,1.35-4.35,0Q34.52,47.59,21.1,35.53a3.7,3.7,0,0,1-1.34-3c0-5.22,0-10.44,0-15.66,0-1.93,1.3-3.31,3-3.06a4,4,0,0,1,1.95,1q10.34,9.23,20.6,18.5Z"/></svg>