<svg id="Warstwa_1" data-name="Warstwa 1" xmlns="http://www.w3.org/2000/svg" viewBox="0 0 100 100"><defs><style>.cls-1{fill:#289bee;}.cls-2{fill:#28adee;}.cls-3{fill:#f2f7f7;}</style></defs><title>icony-nawilzanie</title><path class="cls-1" d="M58.58,22.59a83.65,83.65,0,0,1-9-19.83h0a83.17,83.17,0,0,1-9,19.83c-7.69,15.49-20,23.65-20,43.13,0,16.77,12.25,30.35,29,30.35h0c16.77,0,29-13.58,29-30.35,0-19.48-12.3-27.64-20-43.13Z"/><path class="cls-2" d="M58.58,22.59a83.65,83.65,0,0,1-9-19.83s-16.76,93.31,0,93.31h0c16.77,0,29-13.58,29-30.35,0-19.48-12.3-27.64-20-43.13Z"/><path class="cls-3" d="M51.21,91.12h0c13.12,0,22.71-10.64,22.71-23.75,0-15.25-35.83,23.75-22.71,23.75Z"/></svg>